<svg xmlns="http://www.w3.org/2000/svg" xmlns:xlink="http://www.w3.org/1999/xlink" width="596.775" height="567.885" viewBox="0 0 596.775 567.885">
  <defs>
    <linearGradient id="linear-gradient" x1="0.843" y1="0.388" x2="0.467" y2="0.864" gradientUnits="objectBoundingBox">
      <stop offset="0" stop-color="#ffa126"/>
      <stop offset="1" stop-color="#e07c00"/>
    </linearGradient>
    <filter id="Subtraction_11" x="0" y="0" width="596.775" height="567.885" filterUnits="userSpaceOnUse">
      <feOffset dx="5" dy="3" input="SourceAlpha"/>
      <feGaussianBlur stdDeviation="10" result="blur"/>
      <feFlood flood-color="#cf7300"/>
      <feComposite operator="in" in2="blur"/>
      <feComposite in="SourceGraphic"/>
    </filter>
  </defs>
  <g transform="matrix(1, 0, 0, 1, 0, 0)" filter="url(#Subtraction_11)">
    <path id="Subtraction_11-2" data-name="Subtraction 11" d="M525.964,507.885H202.638A191.639,191.639,0,0,0,253.29,377.977c0-106.008-86.244-192.253-192.253-192.253A191.436,191.436,0,0,0,0,195.654V0H205.328c9.15,13.854,17.829,28.364,26.223,42.4l0,.005.005.009.013.023C240.3,57.019,248.538,70.8,257.242,83.851c4.679,7.018,9.038,13.144,13.328,18.728A209.538,209.538,0,0,0,284.655,119.2a141.14,141.14,0,0,0,15.166,13.941,102.148,102.148,0,0,0,16.572,10.677,84.886,84.886,0,0,0,18.3,6.832,83.383,83.383,0,0,0,9.9,1.793,88.379,88.379,0,0,0,10.454.614,103.74,103.74,0,0,0,19.415-1.916,139.815,139.815,0,0,0,21.386-6,242.986,242.986,0,0,1,31.524-9.338c4.636-1,9.11-1.752,13.295-2.244a101.3,101.3,0,0,1,11.775-.732,73.3,73.3,0,0,1,9.923.645,55.71,55.71,0,0,1,8.7,1.889,45.484,45.484,0,0,1,7.559,3.066,41.292,41.292,0,0,1,6.5,4.174,42.213,42.213,0,0,1,5.522,5.215,48.159,48.159,0,0,1,4.625,6.187,59.741,59.741,0,0,1,3.812,7.092,77.8,77.8,0,0,1,3.078,7.928,119.9,119.9,0,0,1,4.285,18.093c1.007,6.121,1.771,12.867,2.336,20.623,1.051,14.473,1.237,30.1,1.433,46.654v.026c.229,19.248.465,39.15,2.1,58.789.887,10.624,2.094,20.133,3.689,29.072.867,4.859,1.864,9.593,2.961,14.071,1.155,4.708,2.46,9.29,3.88,13.616a313.781,313.781,0,0,1,9.087,33.546,231.367,231.367,0,0,1,4.289,29.712,185.9,185.9,0,0,1,.148,26.476,169.322,169.322,0,0,1-3.336,23.837,177.2,177.2,0,0,1-6.161,21.794c-.293.836-.6,1.693-.912,2.546h0Z" transform="translate(25 27)" fill="url(#linear-gradient)"/>
  </g>
</svg>
