<svg xmlns="http://www.w3.org/2000/svg" xmlns:xlink="http://www.w3.org/1999/xlink" width="517.677" height="507.886" viewBox="0 0 517.677 507.886">
  <defs>
    <linearGradient id="linear-gradient" x1="0.791" y1="0.265" x2="0.081" y2="1.089" gradientUnits="objectBoundingBox">
      <stop offset="0" stop-color="#ffa126"/>
      <stop offset="1" stop-color="#e07c00"/>
    </linearGradient>
  </defs>
  <path id="Subtraction_6" data-name="Subtraction 6" d="M496.5,507.886H175.97a194.215,194.215,0,0,0,25.359-28.963,192.7,192.7,0,0,0,19.21-33.637,190.408,190.408,0,0,0,16.43-77.755c0-106.008-86.244-192.252-192.253-192.252A192.479,192.479,0,0,0,0,180.529V0H342.418c1.059.859,2.117,1.724,3.145,2.573,11.625,9.594,22.925,19.864,33.586,30.525s20.932,21.962,30.526,33.587c9.616,11.652,18.776,23.9,27.227,36.41,8.491,12.57,16.462,25.69,23.69,39,7.281,13.4,13.982,27.313,19.916,41.343,5.99,14.164,11.341,28.784,15.9,43.454,4.614,14.834,8.535,30.084,11.655,45.325a474.153,474.153,0,0,1,7.167,46.961,480.029,480.029,0,0,1,0,96.715,474.162,474.162,0,0,1-7.167,46.96c-3.1,15.138-6.989,30.29-11.565,45.036Z" fill="url(#linear-gradient)"/>
</svg>
